<svg width="221" height="59" viewBox="0 0 221 59" fill="none" xmlns="http://www.w3.org/2000/svg">
<g id="Image [w-100]">
<path id="Vector" d="M50.9506 20.9525C51.5461 20.9525 51.7446 21.1676 51.7446 21.7466V34.8485H58.477C59.0559 34.8485 59.2709 35.0636 59.2709 35.6426V36.8006C59.2709 37.3796 59.0559 37.5946 58.477 37.5946H49.6108C49.0318 37.5946 48.8003 37.3796 48.8003 36.8006V21.7466C48.8003 21.1676 49.0318 20.9525 49.6108 20.9525H50.9506Z" fill="white"/>
<path id="Vector_2" d="M65.1422 26.726C65.1422 22.9046 67.5572 20.6051 71.7588 20.6051C75.9603 20.6051 78.3753 22.9046 78.3753 26.726V31.8212C78.3753 35.6426 75.9437 37.942 71.7588 37.942C67.5738 37.942 65.1422 35.6426 65.1422 31.8212V26.726ZM75.5963 26.726C75.5963 24.5754 74.2565 23.4174 71.8415 23.4174C69.4264 23.4174 68.1031 24.5919 68.1031 26.726V31.8542C68.1031 34.0214 69.4264 35.1628 71.8415 35.1628C74.2565 35.1628 75.5963 33.9717 75.5963 31.8542V26.726Z" fill="white"/>
<path id="Vector_3" d="M98.0753 28.4795C98.7204 28.4795 98.8693 28.6946 98.8693 29.2736V32.4167C98.8868 33.157 98.7384 33.892 98.435 34.5675C98.1315 35.2431 97.6809 35.8421 97.1159 36.3208C95.7127 37.4383 93.9434 37.9926 92.1535 37.8759C87.8693 37.8759 85.5369 35.5764 85.5369 31.755V26.6267C85.5369 22.8549 87.952 20.5389 92.1535 20.5389C95.4617 20.5389 97.6121 21.8458 98.5219 24.4596C98.5728 24.5579 98.6001 24.6665 98.6016 24.7771C98.6031 24.8877 98.5788 24.9972 98.5307 25.0967C98.4825 25.1963 98.4117 25.2833 98.3241 25.3508C98.2364 25.4181 98.1342 25.4642 98.0256 25.4853L96.7354 25.9319C96.173 26.1304 95.9414 26.0146 95.7429 25.4356C95.4688 24.7291 94.9671 24.1339 94.3171 23.7445C93.667 23.355 92.9058 23.1932 92.1535 23.2851C89.7219 23.2851 88.3986 24.4596 88.3986 26.5936V31.8543C88.3986 34.0214 89.7384 35.1628 92.1535 35.1628C94.5685 35.1628 96.0572 34.0545 96.0572 32.4333V31.2091H92.4678C91.8723 31.2091 91.6572 30.9775 91.6572 30.3985V29.2736C91.6572 28.6946 91.8723 28.4795 92.4678 28.4795H98.0753Z" fill="white"/>
<path id="Vector_4" d="M105.7 26.726C105.7 22.9046 108.115 20.6051 112.316 20.6051C116.518 20.6051 118.933 22.9046 118.933 26.726V31.8212C118.933 35.6426 116.501 37.942 112.316 37.942C108.132 37.942 105.7 35.6426 105.7 31.8212V26.726ZM116.137 26.726C116.137 24.5754 114.798 23.4174 112.399 23.4174C110.001 23.4174 108.644 24.5919 108.644 26.726V31.8542C108.644 34.0214 109.984 35.1628 112.399 35.1628C114.814 35.1628 116.137 33.9717 116.137 31.8542V26.726Z" fill="white"/>
<path id="Vector_5" d="M126.723 21.4323C126.723 21.0683 126.839 20.9525 127.203 20.9525H127.963C128.327 20.9525 128.41 21.0683 128.41 21.4323V37.1149C128.41 37.4788 128.41 37.5946 127.963 37.5946H127.203C126.839 37.5946 126.723 37.4788 126.723 37.1149V21.4323Z" fill="white"/>
<path id="Vector_6" d="M143.479 20.9525C144.856 20.9525 146.177 21.4998 147.151 22.474C148.125 23.448 148.673 24.7693 148.673 26.147C148.673 27.5247 148.125 28.8459 147.151 29.82C146.177 30.7942 144.856 31.3414 143.479 31.3414H138.516V37.1149C138.516 37.4788 138.434 37.5946 138.086 37.5946H137.309C136.961 37.5946 136.829 37.4788 136.829 37.1149V21.4323C136.829 21.0683 136.961 20.9525 137.309 20.9525H143.479ZM143.33 29.7037C143.803 29.7037 144.272 29.6104 144.71 29.4292C145.147 29.2479 145.545 28.9823 145.88 28.6474C146.214 28.3126 146.48 27.9149 146.661 27.4775C146.842 27.04 146.936 26.571 146.936 26.0973C146.936 25.6237 146.842 25.1547 146.661 24.7172C146.48 24.2798 146.214 23.8821 145.88 23.5473C145.545 23.2124 145.147 22.9468 144.71 22.7654C144.272 22.5843 143.803 22.491 143.33 22.491H138.367V29.7037H143.33Z" fill="white"/>
<path id="Vector_7" d="M161.59 20.6219C162.868 20.4809 164.156 20.7557 165.265 21.4053C166.372 22.0551 167.242 23.0451 167.743 24.2282C167.876 24.4929 167.743 24.7079 167.479 24.8403L166.751 25.1711C166.453 25.2869 166.337 25.2704 166.155 24.9561C165.782 24.078 165.137 23.3418 164.316 22.8541C163.495 22.3665 162.541 22.1524 161.59 22.2431C158.795 22.2431 157.273 23.3514 157.273 25.3366C157.257 25.9432 157.461 26.5354 157.847 27.0036C158.233 27.4718 158.775 27.7846 159.374 27.8842C160.263 28.1743 161.186 28.3522 162.12 28.4135C163.25 28.4738 164.365 28.7024 165.428 29.0918C166.243 29.3497 166.944 29.8801 167.414 30.5941C167.884 31.308 168.094 32.162 168.008 33.0125C168.008 36.106 165.759 37.9753 161.624 37.9753C160.267 38.1305 158.898 37.8162 157.746 37.0846C156.593 36.3533 155.726 35.2487 155.288 33.9554C155.259 33.8965 155.243 33.8318 155.242 33.766C155.241 33.7001 155.254 33.635 155.281 33.5749C155.308 33.5149 155.347 33.4614 155.397 33.4186C155.447 33.3756 155.506 33.3443 155.569 33.3268L156.297 33.0621C156.354 33.0386 156.416 33.0273 156.478 33.029C156.54 33.0307 156.601 33.0452 156.657 33.0717C156.713 33.0981 156.763 33.1359 156.803 33.1827C156.844 33.2295 156.874 33.2841 156.893 33.3433C157.263 34.2778 157.921 35.0702 158.771 35.6057C159.622 36.141 160.621 36.3917 161.624 36.321C164.75 36.321 166.288 35.2292 166.288 33.0125C166.317 32.4298 166.139 31.8556 165.785 31.3921C165.43 30.9287 164.923 30.606 164.353 30.4814C163.497 30.2261 162.614 30.0706 161.723 30.0182L159.936 29.7866C159.377 29.668 158.825 29.5188 158.282 29.3399C157.746 29.178 157.246 28.914 156.81 28.5624C156.371 28.1651 156.025 27.6761 155.796 27.13C155.568 26.5839 155.462 25.9943 155.487 25.4027C155.602 22.5077 157.769 20.6219 161.59 20.6219Z" fill="white"/>
<path id="Vector_8" d="M176.923 31.937C176.992 33.1069 177.507 34.2058 178.36 35.0093C179.214 35.8128 180.342 36.2601 181.513 36.2601C182.684 36.2601 183.812 35.8128 184.666 35.0093C185.519 34.2058 186.032 33.1069 186.103 31.937V21.4323C186.103 21.0683 186.219 20.9525 186.583 20.9525H187.344C187.708 20.9525 187.824 21.0683 187.824 21.4323V31.9204C187.824 35.6757 185.607 37.942 181.521 37.942C177.436 37.942 175.219 35.6757 175.219 31.9204V21.4323C175.219 21.0683 175.335 20.9525 175.682 20.9525H176.46C176.807 20.9525 176.923 21.0683 176.923 21.4323V31.937Z" fill="white"/>
<path id="Vector_9" d="M210.651 20.9525C211.015 20.9525 211.131 21.0683 211.131 21.4323V37.1149C211.131 37.4788 211.015 37.5946 210.651 37.5946H209.957C209.609 37.5946 209.493 37.4788 209.493 37.1149V27.5697C209.493 26.1809 209.588 24.7936 209.775 23.4174H209.675C209.159 24.6758 208.556 25.8974 207.872 27.0734L204.316 33.3431C204.273 33.452 204.197 33.545 204.099 33.61C204.002 33.6748 203.888 33.7087 203.77 33.7071H203.307C203.188 33.7077 203.072 33.6735 202.971 33.609C202.872 33.5443 202.793 33.452 202.745 33.3431L199.139 27.0072C198.498 25.8481 197.946 24.6426 197.484 23.4009H197.385C197.554 24.7896 197.643 26.1872 197.65 27.5862V37.1149C197.65 37.4788 197.534 37.5946 197.17 37.5946H196.525C196.161 37.5946 196.045 37.4788 196.045 37.1149V21.4323C196.045 21.0683 196.161 20.9525 196.525 20.9525H197.121C197.256 20.94 197.393 20.9696 197.511 21.0377C197.63 21.1059 197.724 21.2091 197.782 21.333L203.572 31.6227L209.328 21.4323C209.51 21.0849 209.609 21.0352 209.973 21.0352L210.651 20.9525Z" fill="white"/>
<path id="Vector_10" d="M21.5245 35.0801V47.0406C21.5245 47.4992 21.3423 47.9389 21.0182 48.263C20.6941 48.5872 20.2545 48.7693 19.796 48.7693C19.3376 48.7693 18.898 48.5872 18.5738 48.263C18.2496 47.9389 18.0675 47.4992 18.0675 47.0406V35.0967C18.5488 35.4482 19.1257 35.6444 19.7215 35.6591C20.3709 35.6777 21.0072 35.4734 21.5245 35.0801ZM36.2456 31.6227C35.8069 31.6227 35.3861 31.797 35.076 32.1072C34.7659 32.4174 34.5915 32.8382 34.5915 33.277V35.3614C34.5915 35.8199 34.7736 36.2596 35.0978 36.5837C35.4219 36.908 35.8615 37.0901 36.32 37.0901C36.7785 37.0901 37.2182 36.908 37.5422 36.5837C37.8664 36.2596 38.0485 35.8199 38.0485 35.3614V33.3597C38.0614 33.1225 38.023 32.8852 37.936 32.6642C37.849 32.4432 37.7156 32.2434 37.5444 32.0786C37.3733 31.9138 37.1687 31.7878 36.9448 31.709C36.7206 31.6304 36.4821 31.601 36.2456 31.6227ZM14.3128 39.6129C13.7176 39.595 13.1415 39.3991 12.6587 39.0504V51.044C12.6587 51.5047 12.8417 51.9466 13.1674 52.2723C13.4931 52.598 13.9349 52.781 14.3955 52.781C14.8561 52.781 15.2979 52.598 15.6236 52.2723C15.9493 51.9466 16.1323 51.5047 16.1323 51.044V39.1331C15.5921 39.4824 14.9548 39.6504 14.3128 39.6129ZM30.8534 28.0329C30.6292 28.0216 30.4053 28.0562 30.1949 28.1343C29.9846 28.2124 29.7924 28.3325 29.6299 28.4871C29.4674 28.642 29.3382 28.8281 29.2499 29.0344C29.1618 29.2407 29.1163 29.4628 29.1166 29.6872V38.9015C29.1166 39.3623 29.2995 39.8041 29.6252 40.1298C29.9511 40.4556 30.3927 40.6385 30.8534 40.6385C31.314 40.6385 31.7558 40.4556 32.0815 40.1298C32.4072 39.8041 32.5901 39.3623 32.5901 38.9015V29.803C32.6034 29.5642 32.5646 29.3255 32.4767 29.1032C32.3887 28.8809 32.2537 28.6802 32.0807 28.5151C31.9077 28.35 31.7011 28.2243 31.475 28.1469C31.2488 28.0693 31.0085 28.0416 30.7707 28.066L30.8534 28.0329ZM25.3619 31.573C24.7388 31.5687 24.1324 31.3724 23.6251 31.0106V43.0372C23.6251 43.498 23.8081 43.9398 24.1337 44.2656C24.4596 44.5913 24.9012 44.7742 25.3619 44.7742C25.8225 44.7742 26.2642 44.5913 26.59 44.2656C26.9157 43.9398 27.0986 43.498 27.0986 43.0372V31.0271C26.574 31.418 25.9334 31.6218 25.2792 31.6061L25.3619 31.573ZM10.5581 40.7874V7.18888C10.5537 6.77932 10.388 6.38805 10.0969 6.09999C9.80577 5.81193 9.41279 5.65037 9.00327 5.65039H8.63938C8.22987 5.65037 7.83688 5.81193 7.54577 6.09999C7.25465 6.38805 7.08891 6.77932 7.08456 7.18888V40.7874C7.08456 41.1998 7.24838 41.5954 7.53996 41.887C7.83154 42.1787 8.22702 42.3424 8.63938 42.3424H9.00327C9.41565 42.3424 9.81112 42.1787 10.1027 41.887C10.3943 41.5954 10.5581 41.1998 10.5581 40.7874ZM14.4948 38.3391H14.1309C13.7185 38.3391 13.323 38.1753 13.0314 37.8836C12.7399 37.592 12.576 37.1965 12.576 36.784V11.1922C12.5804 10.7827 12.7461 10.3914 13.0372 10.1034C13.3284 9.8153 13.7213 9.65375 14.1309 9.65376H14.4948C14.9043 9.65375 15.2973 9.8153 15.5884 10.1034C15.8795 10.3914 16.0452 10.7827 16.0496 11.1922V36.8171C16.0496 37.2295 15.8858 37.6251 15.5942 37.9167C15.3026 38.2084 14.9071 38.3722 14.4948 38.3722V38.3391ZM19.9696 34.4019H19.5892C19.1813 34.4019 18.79 34.2398 18.5015 33.9512C18.213 33.6627 18.0509 33.2715 18.0509 32.8634V15.1625C18.0488 14.9591 18.087 14.7573 18.1632 14.5687C18.2395 14.3801 18.3525 14.2086 18.4955 14.064C18.6386 13.9193 18.809 13.8045 18.9967 13.7262C19.1845 13.6478 19.3858 13.6075 19.5892 13.6075H19.9696C20.3792 13.6119 20.7704 13.7776 21.0583 14.0688C21.3465 14.3599 21.5079 14.753 21.5079 15.1625V32.8634C21.5079 33.2715 21.3458 33.6627 21.0574 33.9512C20.7689 34.2398 20.3777 34.4019 19.9696 34.4019ZM25.4446 30.3489H25.0972C24.6877 30.3489 24.2947 30.1874 24.0036 29.8992C23.7124 29.6112 23.5467 29.22 23.5424 28.8104V19.2817C23.5289 19.0693 23.559 18.8564 23.6311 18.6561C23.703 18.4559 23.8155 18.2724 23.9612 18.1174C24.1069 17.9622 24.2829 17.8388 24.4784 17.7545C24.6738 17.6703 24.8844 17.6269 25.0972 17.6274H25.4611C25.8735 17.6274 26.269 17.7912 26.5606 18.0828C26.8522 18.3745 27.0159 18.77 27.0159 19.1824V28.7773C27.0181 28.9829 26.9795 29.1869 26.9023 29.3775C26.8252 29.5681 26.7111 29.7414 26.5664 29.8877C26.4218 30.0337 26.2498 30.1497 26.0599 30.2289C25.8702 30.3082 25.6667 30.3489 25.4611 30.3489H25.4446ZM30.9361 26.7922H30.5722C30.1598 26.7922 29.7643 26.6284 29.4727 26.3367C29.1811 26.0451 29.0174 25.6495 29.0174 25.2371V22.7722C29.0217 22.3626 29.1874 21.9714 29.4785 21.6834C29.7696 21.3952 30.1626 21.2338 30.5722 21.2338H30.9361C31.3456 21.2338 31.7386 21.3952 32.0297 21.6834C32.3208 21.9714 32.4866 22.3626 32.4909 22.7722V25.2371C32.4909 25.6467 32.3294 26.0398 32.0413 26.3309C31.7533 26.6221 31.3621 26.7879 30.9526 26.7922H30.9361Z" fill="white"/>
</g>
</svg>
