<svg width="23" height="23" viewBox="0 0 23 23" fill="none" xmlns="http://www.w3.org/2000/svg">
<g id="Icon" clip-path="url(#clip0_1_266)">
<g id="Group">
<path id="Vector" d="M19.75 2.09766C20.1147 2.09766 20.4644 2.24252 20.7223 2.50038C20.9801 2.75825 21.125 3.10798 21.125 3.47266V19.9727C21.125 20.3373 20.9801 20.6871 20.7223 20.9449C20.4644 21.2028 20.1147 21.3477 19.75 21.3477H3.25C2.88533 21.3477 2.53559 21.2028 2.27773 20.9449C2.01987 20.6871 1.875 20.3373 1.875 19.9727V3.47266C1.875 3.10798 2.01987 2.75825 2.27773 2.50038C2.53559 2.24252 2.88533 2.09766 3.25 2.09766H19.75ZM3.25 0.722656C2.52065 0.722656 1.82118 1.01239 1.30546 1.52811C0.789731 2.04384 0.5 2.74331 0.5 3.47266L0.5 19.9727C0.5 20.702 0.789731 21.4015 1.30546 21.9172C1.82118 22.4329 2.52065 22.7227 3.25 22.7227H19.75C20.4793 22.7227 21.1788 22.4329 21.6945 21.9172C22.2103 21.4015 22.5 20.702 22.5 19.9727V3.47266C22.5 2.74331 22.2103 2.04384 21.6945 1.52811C21.1788 1.01239 20.4793 0.722656 19.75 0.722656L3.25 0.722656Z" fill="white"/>
<path id="Vector_2" d="M9.92426 7.11091C9.98828 7.17478 10.0391 7.25064 10.0737 7.33417C10.1084 7.41769 10.1262 7.50723 10.1262 7.59766C10.1262 7.68809 10.1084 7.77764 10.0737 7.86116C10.0391 7.94469 9.98828 8.02055 9.92426 8.08441L6.28463 11.7227L9.92426 15.3609C10.0534 15.49 10.1259 15.6651 10.1259 15.8477C10.1259 16.0302 10.0534 16.2053 9.92426 16.3344C9.79516 16.4635 9.62007 16.536 9.43751 16.536C9.25494 16.536 9.07985 16.4635 8.95076 16.3344L4.82576 12.2094C4.76173 12.1456 4.71094 12.0697 4.67628 11.9862C4.64162 11.9026 4.62378 11.8131 4.62378 11.7227C4.62378 11.6322 4.64162 11.5427 4.67628 11.4592C4.71094 11.3756 4.76173 11.2998 4.82576 11.2359L8.95076 7.11091C9.01462 7.04689 9.09049 6.99609 9.17401 6.96143C9.25754 6.92678 9.34708 6.90894 9.43751 6.90894C9.52794 6.90894 9.61748 6.92678 9.701 6.96143C9.78453 6.99609 9.8604 7.04689 9.92426 7.11091ZM13.0758 7.11091C13.0117 7.17478 12.9609 7.25064 12.9263 7.33417C12.8916 7.41769 12.8738 7.50723 12.8738 7.59766C12.8738 7.68809 12.8916 7.77764 12.9263 7.86116C12.9609 7.94469 13.0117 8.02055 13.0758 8.08441L16.7154 11.7227L13.0758 15.3609C12.9467 15.49 12.8741 15.6651 12.8741 15.8477C12.8741 16.0302 12.9467 16.2053 13.0758 16.3344C13.2049 16.4635 13.3799 16.536 13.5625 16.536C13.7451 16.536 13.9202 16.4635 14.0493 16.3344L18.1743 12.2094C18.2383 12.1456 18.2891 12.0697 18.3237 11.9862C18.3584 11.9026 18.3762 11.8131 18.3762 11.7227C18.3762 11.6322 18.3584 11.5427 18.3237 11.4592C18.2891 11.3756 18.2383 11.2998 18.1743 11.2359L14.0493 7.11091C13.9854 7.04689 13.9095 6.99609 13.826 6.96143C13.7425 6.92678 13.6529 6.90894 13.5625 6.90894C13.4721 6.90894 13.3825 6.92678 13.299 6.96143C13.2155 6.99609 13.1396 7.04689 13.0758 7.11091Z" fill="white"/>
</g>
</g>
<defs>
<clipPath id="clip0_1_266">
<rect width="22" height="22" fill="white" transform="translate(0.5 0.722656)"/>
</clipPath>
</defs>
</svg>
