<svg width="17" height="17" viewBox="0 0 17 17" fill="none" xmlns="http://www.w3.org/2000/svg">
<g id="Icon">
<path id="Vector" fill-rule="evenodd" clip-rule="evenodd" d="M1.625 8.58413C1.625 8.45152 1.67768 8.32434 1.77145 8.23057C1.86521 8.13681 1.99239 8.08413 2.125 8.08413H13.918L10.771 4.93813C10.6771 4.84424 10.6244 4.7169 10.6244 4.58413C10.6244 4.45135 10.6771 4.32401 10.771 4.23013C10.8649 4.13624 10.9922 4.0835 11.125 4.0835C11.2578 4.0835 11.3851 4.13624 11.479 4.23013L15.479 8.23013C15.5256 8.27657 15.5625 8.33175 15.5877 8.39249C15.6129 8.45324 15.6259 8.51836 15.6259 8.58413C15.6259 8.64989 15.6129 8.71502 15.5877 8.77576C15.5625 8.83651 15.5256 8.89168 15.479 8.93813L11.479 12.9381C11.3851 13.032 11.2578 13.0848 11.125 13.0848C10.9922 13.0848 10.8649 13.032 10.771 12.9381C10.6771 12.8442 10.6244 12.7169 10.6244 12.5841C10.6244 12.4514 10.6771 12.324 10.771 12.2301L13.918 9.08413H2.125C1.99239 9.08413 1.86521 9.03145 1.77145 8.93768C1.67768 8.84391 1.625 8.71674 1.625 8.58413Z" fill="white"/>
</g>
</svg>
