<svg width="339" height="339" viewBox="0 0 339 339" fill="none" xmlns="http://www.w3.org/2000/svg">
<path fill-rule="evenodd" clip-rule="evenodd" d="M140.133 2.90842C140.577 2.82915 141.022 2.75173 141.468 2.67636C141.913 2.60098 142.359 2.52764 142.806 2.45632L155.068 78.6075C154.822 78.647 154.576 78.6875 154.331 78.7291C154.085 78.7706 153.84 78.8131 153.595 78.8567L140.133 2.90842ZM149.488 1.51489C150.386 1.40588 151.283 1.30514 152.181 1.21066L160.215 77.9237C159.723 77.9755 159.232 78.0315 158.741 78.0906L149.488 1.51489ZM130.869 4.81521C131.746 4.60952 132.627 4.40943 133.51 4.21727L149.957 79.5762C149.472 79.6821 148.99 79.7909 148.509 79.9035L130.869 4.81521ZM158.919 0.640665C159.822 0.581674 160.727 0.530956 161.63 0.486666L165.371 77.5293C164.879 77.553 164.387 77.5811 163.893 77.6123L158.919 0.640665ZM121.707 7.23886C122.573 6.98381 123.445 6.73419 124.319 6.49251L144.933 80.819C144.456 80.952 143.982 81.0873 143.51 81.2268L121.707 7.23886ZM168.402 0.293701C169.307 0.286581 170.214 0.285543 171.118 0.29312L170.528 77.4238C170.037 77.4192 169.544 77.4201 169.053 77.4239L168.402 0.293701ZM112.682 10.1764C113.535 9.87153 114.39 9.57472 115.249 9.28334L139.999 82.3379C139.532 82.496 139.068 82.657 138.606 82.8227L112.682 10.1764ZM177.898 0.481618C178.803 0.524667 179.708 0.574984 180.61 0.633074L175.671 77.6083C175.182 77.5763 174.693 77.5496 174.203 77.525L177.898 0.481618ZM103.831 13.6187C104.664 13.2671 105.502 12.9221 106.342 12.5839L135.168 84.127C134.713 84.3114 134.259 84.4976 133.808 84.6887L103.831 13.6187ZM187.374 1.20485C188.274 1.29875 189.174 1.40008 190.071 1.50918L180.792 78.0815C180.307 78.0229 179.821 77.9684 179.333 77.9173L187.374 1.20485ZM95.1842 17.5574C95.9962 17.1593 96.8123 16.7678 97.6316 16.383L130.452 86.1845C130.009 86.3931 129.567 86.6044 129.128 86.8195L95.1842 17.5574ZM196.794 2.46235C197.686 2.60759 198.578 2.75925 199.468 2.91849L185.878 78.8444C185.395 78.758 184.913 78.6759 184.43 78.5979L196.794 2.46235ZM86.7737 21.9786C87.5609 21.5356 88.3522 21.0993 89.1485 20.6684L125.862 88.5036C125.432 88.736 125.003 88.9722 124.577 89.2122L86.7737 21.9786ZM206.126 4.25C207.008 4.4449 207.889 4.6473 208.769 4.85642L190.912 79.8934C190.437 79.7806 189.959 79.6706 189.481 79.5649L206.126 4.25ZM78.6279 26.8672C79.3884 26.3807 80.1539 25.8998 80.9236 25.4254L121.41 91.0778C120.993 91.3349 120.579 91.5959 120.166 91.8587L78.6279 26.8672ZM215.338 6.55951C216.21 6.80421 217.079 7.05669 217.944 7.31502L195.887 81.2267C195.418 81.0859 194.946 80.9499 194.473 80.8171L215.338 6.55951ZM70.7701 32.2066C71.5036 31.6779 72.2411 31.1547 72.9837 30.6359L117.108 93.9019C116.705 94.1828 116.304 94.4664 115.907 94.7538L70.7701 32.2066ZM224.401 9.3845C225.259 9.67754 226.111 9.97776 226.962 10.2844L200.783 82.8392C200.32 82.6725 199.856 82.5089 199.391 82.3498L224.401 9.3845ZM63.2305 37.9763C63.9331 37.4069 64.6409 36.8429 65.3527 36.2843L112.967 96.9669C112.58 97.27 112.196 97.577 111.814 97.8867L63.2305 37.9763ZM233.289 12.7125C234.127 13.0528 234.961 13.3998 235.793 13.7536L205.584 84.7257C205.133 84.5329 204.678 84.3439 204.224 84.1589L233.289 12.7125ZM56.0326 44.1565C56.7016 43.5489 57.3749 42.9469 58.0541 42.3501L108.999 100.264C108.63 100.588 108.263 100.916 107.9 101.247L56.0326 44.1565ZM241.972 16.5313C242.787 16.918 243.599 17.3105 244.41 17.7105L210.278 86.8804C209.837 86.663 209.394 86.448 208.949 86.2373L241.972 16.5313ZM49.1959 50.7272C49.8285 50.083 50.4675 49.4451 51.1113 48.8116L105.22 103.781C104.869 104.126 104.522 104.475 104.176 104.826L49.1959 50.7272ZM250.42 20.8266C251.213 21.2588 252.002 21.6959 252.788 22.1398L214.848 89.2961C214.419 89.0537 213.988 88.8147 213.556 88.5802L250.42 20.8266ZM42.7395 57.6654C43.3352 56.9878 43.937 56.3156 44.5436 55.6465L101.639 107.509C101.308 107.872 100.981 108.24 100.655 108.61L42.7395 57.6654ZM258.615 25.5863C259.382 26.0615 260.145 26.5415 260.904 27.0286L219.277 91.9647C218.863 91.699 218.446 91.4358 218.027 91.1771L258.615 25.5863ZM36.6829 64.9512C37.2399 64.2416 37.8029 63.5372 38.3716 62.8361L98.2701 111.432C97.9604 111.814 97.6534 112.199 97.3487 112.586L36.6829 64.9512ZM266.528 30.7941C267.267 31.3104 268.004 31.8336 268.734 32.362L223.553 94.8774C223.154 94.5889 222.752 94.303 222.348 94.0213L266.528 30.7941ZM31.0425 72.5629C31.5589 71.8236 32.0811 71.0875 32.6104 70.3566L95.1259 115.538C94.8364 115.937 94.5505 116.34 94.2688 116.743L31.0425 72.5629ZM274.14 36.4344C274.85 36.9914 275.554 37.5545 276.255 38.1231L227.66 98.0226C227.278 97.712 226.892 97.405 226.504 97.1014L274.14 36.4344ZM25.8338 80.477C26.3089 79.7093 26.7899 78.9458 27.2769 78.1865L92.2121 119.814C91.9465 120.228 91.6843 120.645 91.4245 121.064L25.8338 80.477ZM281.426 42.492C282.103 43.0879 282.776 43.6896 283.444 44.2962L231.583 101.392C231.219 101.06 230.851 100.732 230.482 100.406L281.426 42.492ZM21.075 88.6708C21.5063 87.8782 21.9443 87.0886 22.3883 86.3032L89.5436 124.243C89.3022 124.673 89.063 125.102 88.8276 125.536L21.075 88.6708ZM288.364 48.9474C289.009 49.581 289.646 50.2191 290.279 50.8629L235.31 104.971C234.964 104.621 234.616 104.273 234.266 103.928L288.364 48.9474ZM16.7788 97.1201C17.1654 96.3038 17.5589 95.4914 17.958 94.6813L87.1289 128.813C86.9105 129.255 86.6965 129.697 86.4858 130.142L16.7788 97.1201ZM294.935 55.7841C295.542 56.4532 296.144 57.1275 296.74 57.8057L238.827 108.751C238.502 108.383 238.174 108.015 237.844 107.651L294.935 55.7841ZM12.9599 105.802C13.3013 104.965 13.6483 104.13 14.0021 103.298L84.9741 133.507C84.7814 133.958 84.5923 134.413 84.4064 134.868L12.9599 105.802ZM301.115 62.983C301.684 63.6857 302.248 64.3925 302.807 65.1053L242.124 112.719C241.821 112.332 241.514 111.948 241.204 111.566L301.115 62.983ZM9.63186 114.69C9.92497 113.833 10.2261 112.98 10.5328 112.129L83.0867 138.308C82.9199 138.771 82.7575 139.235 82.5973 139.7L9.63186 114.69ZM306.884 70.5227C307.413 71.2552 307.937 71.9926 308.455 72.7352L245.189 116.859C244.908 116.456 244.625 116.056 244.337 115.659L306.884 70.5227ZM6.80785 123.753C7.05263 122.881 7.3042 122.013 7.56247 121.147L81.4742 143.204C81.3344 143.673 81.1982 144.145 81.0655 144.618L6.80785 123.753ZM312.224 78.3794C312.71 79.1411 313.191 79.9065 313.665 80.6762L248.014 121.162C247.756 120.744 247.496 120.33 247.232 119.917L312.224 78.3794ZM4.49738 132.966C4.69337 132.083 4.89478 131.202 5.1039 130.323L80.1417 148.178C80.0281 148.654 79.919 149.131 79.8133 149.61L4.49738 132.966ZM317.112 86.5254C317.556 87.3134 317.992 88.1048 318.423 88.9011L250.588 125.614C250.355 125.183 250.119 124.756 249.879 124.329L317.112 86.5254ZM2.70982 142.298C2.85489 141.404 3.0077 140.513 3.16594 139.623L79.0929 153.214C79.0065 153.696 78.9242 154.177 78.8454 154.661L2.70982 142.298ZM321.534 94.9368C321.931 95.7478 322.323 96.5639 322.708 97.3832L252.907 130.204C252.698 129.761 252.487 129.32 252.271 128.88L321.534 94.9368ZM1.45233 151.717C1.54724 150.817 1.64855 149.917 1.75764 149.021L78.3301 158.299C78.2713 158.785 78.2159 159.271 78.1648 159.758L1.45233 151.717ZM325.473 103.583C325.824 104.416 326.169 105.254 326.507 106.094L254.963 134.92C254.78 134.465 254.594 134.012 254.402 133.56L325.473 103.583ZM0.72906 161.194C0.773134 160.289 0.823449 159.384 0.881538 158.481L77.8556 163.419C77.8248 163.909 77.797 164.398 77.7735 164.888L0.72906 161.194ZM328.915 112.435C329.219 113.287 329.516 114.142 329.807 115.001L256.753 139.75C256.595 139.285 256.434 138.819 256.269 138.358L328.915 112.435ZM0.542168 170.69C0.533864 169.783 0.534 168.878 0.540571 167.973L77.6713 168.564C77.6676 169.054 77.6675 169.547 77.6724 170.038L0.542168 170.69ZM331.852 121.459C332.107 122.326 332.357 123.197 332.598 124.071L258.272 144.685C258.14 144.208 258.004 143.733 257.865 143.262L331.852 121.459ZM0.888139 180.173C0.830003 179.268 0.778271 178.364 0.735163 177.461L77.7768 173.72C77.8004 174.211 77.8284 174.705 77.8609 175.198L0.888139 180.173ZM334.276 130.621C334.482 131.498 334.682 132.378 334.874 133.263L259.515 149.708C259.409 149.225 259.3 148.741 259.188 148.26L334.276 130.621ZM1.76217 189.602C1.65417 188.705 1.55242 187.807 1.45912 186.91L78.1722 178.877C78.2239 179.368 78.2789 179.86 78.338 180.351L1.76217 189.602ZM336.182 139.884C336.261 140.328 336.34 140.774 336.415 141.219C336.491 141.666 336.563 142.111 336.634 142.557L260.484 154.82C260.445 154.574 260.404 154.329 260.362 154.082C260.321 153.838 260.278 153.592 260.235 153.347L336.182 139.884ZM2.92465 197.623C2.84944 197.178 2.77594 196.731 2.70377 196.286L78.856 184.024C78.8955 184.27 78.936 184.515 78.9774 184.76C79.019 185.006 79.0616 185.252 79.1052 185.497L3.15586 198.959C3.07744 198.514 3.0002 198.069 2.92465 197.623ZM337.576 149.24C337.685 150.138 337.786 151.036 337.88 151.933L261.168 159.967C261.115 159.476 261.06 158.984 261.001 158.492L337.576 149.24ZM5.06368 208.222C4.85681 207.344 4.65772 206.463 4.46454 205.58L79.8237 189.135C79.9295 189.619 80.0393 190.101 80.152 190.582L5.06368 208.222ZM338.45 158.67C338.509 159.574 338.56 160.478 338.604 161.382L261.562 165.124C261.538 164.631 261.51 164.138 261.479 163.645L338.45 158.67ZM7.48736 217.384C7.23113 216.517 6.98252 215.645 6.73999 214.772L81.0676 194.158C81.1994 194.635 81.3348 195.109 81.4742 195.582L7.48736 217.384ZM338.797 168.153C338.804 169.06 338.805 169.965 338.798 170.87L261.668 170.279C261.672 169.789 261.671 169.297 261.667 168.805L338.797 168.153ZM10.4239 226.409C10.12 225.556 9.82201 224.701 9.53181 223.842L82.5864 199.093C82.7434 199.559 82.9055 200.023 83.0702 200.485L10.4239 226.409ZM338.609 177.65C338.567 178.555 338.516 179.459 338.458 180.362L261.483 175.423C261.515 174.935 261.542 174.446 261.566 173.955L338.609 177.65ZM13.8671 235.26C13.5155 234.427 13.1706 233.59 12.8313 232.749L84.3754 203.923C84.5589 204.379 84.7461 204.832 84.936 205.282L13.8671 235.26ZM337.886 187.126C337.792 188.026 337.691 188.926 337.582 189.823L261.009 180.545C261.068 180.059 261.123 179.572 261.174 179.085L337.886 187.126ZM17.8058 243.907C17.4077 243.095 17.0162 242.279 16.6305 241.46L86.432 208.639C86.6406 209.082 86.8529 209.524 87.0681 209.963L17.8058 243.907ZM336.629 196.546C336.483 197.438 336.332 198.33 336.172 199.22L260.247 185.629C260.333 185.148 260.415 184.664 260.494 184.183L336.629 196.546ZM22.227 252.318C21.7841 251.53 21.3466 250.738 20.9159 249.943L88.7511 213.23C88.9843 213.659 89.2207 214.088 89.4607 214.514L22.227 252.318ZM334.841 205.878C334.646 206.761 334.443 207.642 334.235 208.52L259.198 190.665C259.311 190.189 259.421 189.711 259.527 189.234L334.841 205.878ZM27.1146 260.464C26.6282 259.703 26.1483 258.937 25.6728 258.168L91.3263 217.681C91.5833 218.097 91.8433 218.513 92.107 218.925L27.1146 260.464ZM332.532 215.089C332.287 215.961 332.034 216.831 331.776 217.697L257.865 195.64C258.005 195.169 258.141 194.697 258.274 194.225L332.532 215.089ZM32.4551 268.321C31.9254 267.588 31.4021 266.85 30.8842 266.107L94.1504 221.984C94.4311 222.385 94.7149 222.787 95.0012 223.185L32.4551 268.321ZM329.707 224.154C329.413 225.009 329.113 225.863 328.807 226.714L256.251 200.535C256.419 200.073 256.583 199.609 256.741 199.144L329.707 224.154ZM38.2247 275.86C37.6552 275.158 37.0901 274.45 36.5319 273.739L97.2143 226.125C97.5186 226.511 97.8245 226.896 98.1342 227.277L38.2247 275.86ZM326.378 233.041C326.038 233.879 325.691 234.713 325.338 235.544L254.366 205.337C254.558 204.884 254.747 204.431 254.933 203.975L326.378 233.041ZM44.405 283.059C43.7974 282.39 43.1954 281.716 42.5975 281.037L100.512 230.092C100.837 230.461 101.165 230.828 101.496 231.192L44.405 283.059ZM50.9747 289.896C50.3314 289.262 49.6926 288.624 49.0591 287.98L104.03 233.872C104.375 234.222 104.723 234.57 105.074 234.915L50.9747 289.896ZM322.559 241.723C322.173 242.539 321.781 243.352 321.381 244.162L252.211 210.03C252.428 209.589 252.643 209.145 252.854 208.701L322.559 241.723ZM318.264 250.173C317.833 250.966 317.395 251.755 316.952 252.541L249.795 214.6C250.037 214.17 250.277 213.739 250.511 213.308L318.264 250.173ZM57.9139 296.352C57.2362 295.756 56.563 295.154 55.8949 294.547L107.756 237.452C108.121 237.782 108.488 238.111 108.857 238.437L57.9139 296.352ZM313.505 258.366C313.029 259.133 312.55 259.897 312.063 260.656L247.126 219.03C247.392 218.615 247.655 218.198 247.914 217.78L313.505 258.366ZM65.1995 302.408C64.49 301.851 63.7846 301.288 63.0836 300.72L111.679 240.821C112.062 241.131 112.447 241.438 112.834 241.743L65.1995 302.408ZM308.297 266.279C307.781 267.02 307.257 267.755 306.729 268.486L244.214 223.305C244.503 222.907 244.788 222.504 245.07 222.1L308.297 266.279ZM72.8113 308.048C72.0711 307.533 71.336 307.01 70.605 306.48L115.786 243.966C116.185 244.255 116.587 244.541 116.992 244.822L72.8113 308.048ZM302.656 273.892C302.1 274.601 301.536 275.306 300.968 276.008L241.069 227.412C241.379 227.029 241.686 226.645 241.99 226.256L302.656 273.892ZM80.7255 313.258C79.9577 312.782 79.1943 312.301 78.4349 311.814L120.062 246.878C120.477 247.145 120.893 247.407 121.312 247.667L80.7255 313.258ZM296.599 281.177C296.003 281.855 295.402 282.528 294.795 283.196L237.7 231.335C238.031 230.971 238.359 230.603 238.685 230.234L296.599 281.177ZM88.9182 318.016C88.1256 317.585 87.3359 317.147 86.5505 316.702L124.492 249.548C124.921 249.789 125.351 250.028 125.783 250.264L88.9182 318.016ZM97.3685 322.312C96.5522 321.926 95.7389 321.533 94.9297 321.133L129.061 251.962C129.503 252.18 129.946 252.394 130.39 252.605L97.3685 322.312ZM290.144 288.116C289.51 288.76 288.872 289.398 288.229 290.032L234.12 235.061C234.47 234.716 234.818 234.368 235.163 234.017L290.144 288.116ZM283.307 294.687C282.638 295.294 281.964 295.896 281.285 296.493L230.341 238.58C230.709 238.254 231.076 237.926 231.44 237.596L283.307 294.687ZM106.05 326.131C105.212 325.79 104.378 325.443 103.547 325.089L133.754 254.117C134.207 254.309 134.661 254.498 135.116 254.685L106.05 326.131ZM276.108 300.867C275.405 301.436 274.699 302 273.985 302.559L226.372 241.876C226.759 241.573 227.143 241.267 227.526 240.956L276.108 300.867ZM114.937 329.459C114.082 329.166 113.228 328.865 112.377 328.559L138.556 256.004C139.019 256.171 139.482 256.334 139.948 256.494L114.937 329.459ZM268.568 306.636C267.836 307.165 267.098 307.689 266.355 308.207L222.232 244.941C222.634 244.66 223.035 244.376 223.432 244.09L268.568 306.636ZM124.001 332.283C123.13 332.038 122.261 331.786 121.394 331.527L143.452 257.617C143.922 257.757 144.393 257.893 144.866 258.026L124.001 332.283ZM260.712 311.977C259.95 312.463 259.185 312.943 258.415 313.418L217.929 247.765C218.346 247.508 218.761 247.248 219.172 246.984L260.712 311.977ZM133.213 334.593C132.33 334.398 131.449 334.196 130.571 333.987L148.426 258.949C148.902 259.063 149.379 259.172 149.858 259.278L133.213 334.593ZM252.566 316.864C251.778 317.307 250.986 317.744 250.19 318.175L213.477 250.341C213.907 250.107 214.336 249.871 214.763 249.63L252.566 316.864ZM142.545 336.381C141.652 336.236 140.761 336.083 139.872 335.925L153.462 259.998C153.943 260.085 154.426 260.167 154.909 260.246L142.545 336.381ZM244.154 321.285C243.343 321.683 242.527 322.075 241.708 322.461L208.887 252.659C209.331 252.451 209.772 252.238 210.211 252.023L244.154 321.285ZM151.966 337.639C151.065 337.544 150.166 337.442 149.268 337.333L158.547 260.761C159.032 260.82 159.519 260.875 160.007 260.927L151.966 337.639ZM235.508 325.224C234.675 325.575 233.837 325.921 232.998 326.259L204.171 254.716C204.626 254.532 205.079 254.345 205.531 254.155L235.508 325.224ZM161.441 338.362C160.536 338.318 159.632 338.267 158.73 338.21L163.667 261.236C164.156 261.266 164.646 261.294 165.137 261.318L161.441 338.362ZM170.938 338.549C170.031 338.557 169.126 338.557 168.221 338.551L168.812 261.42C169.303 261.423 169.795 261.423 170.287 261.418L170.938 338.549ZM226.657 328.668C225.804 328.971 224.949 329.269 224.09 329.559L199.341 256.504C199.806 256.347 200.272 256.186 200.734 256.021L226.657 328.668ZM180.421 338.202C179.516 338.261 178.612 338.313 177.709 338.356L173.968 261.315C174.46 261.291 174.953 261.263 175.446 261.23L180.421 338.202ZM217.632 331.604C216.764 331.86 215.894 332.109 215.021 332.351L194.406 258.023C194.883 257.892 195.357 257.756 195.829 257.617L217.632 331.604ZM189.851 337.329C188.952 337.437 188.054 337.539 187.158 337.632L179.124 260.919C179.615 260.867 180.107 260.812 180.599 260.753L189.851 337.329ZM208.471 334.027C207.592 334.235 206.712 334.433 205.828 334.626L189.383 259.268C189.866 259.162 190.35 259.051 190.83 258.939L208.471 334.027ZM197.871 336.166C197.425 336.241 196.979 336.315 196.534 336.387L184.271 260.236C184.517 260.196 184.763 260.156 185.008 260.114C185.254 260.072 185.499 260.03 185.744 259.986L199.207 335.935C198.955 335.98 198.704 336.023 198.451 336.067C198.258 336.1 198.065 336.133 197.871 336.166Z" fill="url(#paint0_linear_1_549)"/>
<defs>
<linearGradient id="paint0_linear_1_549" x1="147.627" y1="39.0327" x2="69.2521" y2="269.513" gradientUnits="userSpaceOnUse">
<stop stop-color="#265E6D"/>
<stop offset="1" stop-color="#7AE7C7"/>
</linearGradient>
</defs>
</svg>
