<svg width="167" height="175" viewBox="0 0 167 175" fill="none" xmlns="http://www.w3.org/2000/svg">
<g id="Image [aos-init]" clip-path="url(#clip0_1_584)">
<path id="Vector" fill-rule="evenodd" clip-rule="evenodd" d="M98.9567 12.923C99.2981 12.976 99.6471 13.0327 99.9877 13.0903C100.328 13.1478 100.668 13.2078 101.008 13.27L95.0856 45.6243C94.8915 45.5888 94.6971 45.5546 94.5025 45.5217C94.3079 45.4887 94.1131 45.4571 93.9181 45.4269L98.9567 12.923ZM92.779 12.2208C93.4711 12.2713 94.1615 12.3309 94.8505 12.3997L91.5752 45.1279C91.1897 45.0897 90.7951 45.0553 90.4079 45.0274L92.779 12.2208ZM105.066 14.1275C105.739 14.2891 106.411 14.4599 107.073 14.6384L98.5238 46.4001C98.1489 46.299 97.7733 46.2032 97.3885 46.1111L105.066 14.1275ZM111.058 15.8285C111.714 16.0452 112.368 16.2709 113.021 16.5058L101.882 47.4537C101.512 47.3211 101.15 47.195 100.77 47.0713L111.058 15.8285ZM86.5484 12.0285C87.2418 12.0213 87.9337 12.0232 88.6321 12.0356L88.0655 44.9225C87.6746 44.916 87.2829 44.9145 86.8903 44.9182L86.5484 12.0285ZM80.3137 12.3529C81.0084 12.289 81.6934 12.2326 82.3932 12.1879L84.5566 45.0081C84.1685 45.0339 83.7797 45.0649 83.39 45.1008L80.3137 12.3529ZM116.9 18.0241C117.538 18.2951 118.175 18.575 118.802 18.8624L105.127 48.7772C104.779 48.6166 104.422 48.4594 104.064 48.3074L116.9 18.0241ZM74.1249 13.1951C74.8126 13.0741 75.4907 12.9603 76.1836 12.858L81.0737 45.3844C80.6886 45.4426 80.3026 45.5055 79.9159 45.5733L74.1249 13.1951ZM122.544 20.699C123.157 21.0221 123.768 21.354 124.369 21.6929L108.253 50.3659C107.918 50.1761 107.574 49.9898 107.23 49.8082L122.544 20.699ZM68.033 14.55C68.7052 14.3719 69.3762 14.2021 70.0537 14.0421L77.6336 46.0496C77.2515 46.1392 76.8687 46.2337 76.493 46.3342L68.033 14.55ZM127.944 23.8331C128.523 24.2056 129.109 24.5879 129.685 24.9772L111.235 52.2101C110.913 51.9917 110.591 51.7779 110.26 51.5676L127.944 23.8331ZM133.061 27.4042C133.615 27.8247 134.16 28.2522 134.695 28.686L114.059 54.2979C113.759 54.0537 113.449 53.8127 113.139 53.5761L133.061 27.4042ZM62.0735 16.4034C62.73 16.1712 63.3851 15.9467 64.0469 15.7318L74.2538 46.9995C73.883 47.1208 73.5114 47.2466 73.1392 47.3771L62.0735 16.4034ZM137.859 31.3828C138.373 31.8465 138.884 32.3177 139.388 32.7953L116.703 56.615C116.423 56.3462 116.135 56.0803 115.846 55.8188L137.859 31.3828ZM56.2987 18.7424C56.9308 18.4568 57.5616 18.1788 58.1992 17.9099L70.9605 48.2273C70.6012 48.3792 70.2411 48.5354 69.8804 48.6959L56.2987 18.7424ZM142.317 35.742C142.791 36.2463 143.254 36.7563 143.718 37.2738L119.152 59.1462C118.893 58.8541 118.626 58.5647 118.357 58.2795L142.317 35.742ZM50.737 21.5479C51.3362 21.2101 51.9504 20.8824 52.5633 20.5619L67.7717 49.724C67.4242 49.905 67.0841 50.0916 66.7432 50.2822L50.737 21.5479ZM45.4252 24.799C45.9991 24.4136 46.5799 24.0363 47.1596 23.666L64.7224 51.481C64.3869 51.6894 64.059 51.903 63.7384 52.1219L45.4252 24.799ZM146.392 40.4492C146.825 40.9909 147.25 41.5382 147.665 42.0907L121.385 61.8716C121.146 61.5581 120.907 61.2487 120.667 60.9429L146.392 40.4492ZM150.07 45.4748C150.449 46.0483 150.826 46.6285 151.202 47.2147L123.388 64.7721C123.178 64.4407 122.966 64.1127 122.746 63.7869L150.07 45.4748ZM40.4 28.4748C40.94 28.0434 41.487 27.6196 42.041 27.2038L61.8235 53.4831C61.5085 53.7183 61.201 53.9586 60.8929 54.2022L40.4 28.4748ZM35.6907 32.5518C36.1963 32.0773 36.7089 31.6102 37.2206 31.1492L59.0941 55.7151C58.7999 55.9751 58.5133 56.2398 58.2262 56.5078L35.6907 32.5518ZM153.317 50.7846C153.657 51.3896 153.987 51.9993 154.3 52.6122L125.141 67.8251C124.957 67.4775 124.774 67.1333 124.581 66.791L153.317 50.7846ZM31.3348 37.0049C31.7971 36.4899 32.2667 35.9817 32.7435 35.4805L56.562 58.1623C56.2971 58.446 56.0318 58.7329 55.766 59.0226L31.3348 37.0049ZM156.121 56.3473C156.406 56.9775 156.69 57.6132 156.958 58.2516L126.637 71.009C126.489 70.6493 126.333 70.2912 126.168 69.9349L156.121 56.3473ZM27.3536 41.8058C27.7723 41.2534 28.1983 40.7074 28.6315 40.1679L54.2467 60.8066C54.0035 61.1106 53.7597 61.4174 53.5237 61.7283L27.3536 41.8058ZM158.463 62.1263C158.694 62.7782 158.917 63.434 159.131 64.0933L127.865 74.3016C127.744 73.9304 127.623 73.5618 127.485 73.1934L158.463 62.1263ZM23.7775 46.9246C24.1518 46.3384 24.5335 45.7581 24.9225 45.1839L52.1597 63.6291C51.9384 63.9515 51.7248 64.2777 51.5188 64.6077L23.7775 46.9246ZM160.315 68.083C160.494 68.7531 160.664 69.4267 160.824 70.1034L128.82 77.6816C128.725 77.3007 128.63 76.9224 128.528 76.5453L160.315 68.083ZM20.646 52.3238C20.975 51.7098 21.3033 51.0997 21.6391 50.4952L50.3125 66.6118C50.1218 66.9507 49.9387 67.2934 49.7553 67.6381L20.646 52.3238ZM161.67 74.1786C161.788 74.8599 161.906 75.5455 162.006 76.232L129.48 81.122C129.42 80.736 129.36 80.3523 129.292 79.9695L161.67 74.1786ZM162.517 80.367C162.575 81.0553 162.633 81.7472 162.674 82.4398L129.858 84.6069C129.832 84.2174 129.797 83.8286 129.763 83.442L162.517 80.367ZM17.9736 57.9665C18.2404 57.326 18.5228 56.6917 18.8127 56.0623L48.725 69.736C48.565 70.0898 48.4049 70.4456 48.2523 70.8048L17.9736 57.9665ZM162.838 86.5991C162.846 87.2923 162.845 87.9871 162.828 88.682L129.94 88.1162C129.948 87.7243 129.947 87.333 129.947 86.9438L162.838 86.5991ZM15.7759 63.811C15.996 63.1504 16.2237 62.4941 16.4591 61.842L47.4002 72.9827C47.2713 73.3501 47.1422 73.7194 47.0208 74.092L15.7759 63.811ZM14.0787 69.8017C14.2346 69.1271 14.4062 68.4574 14.5856 67.7915L46.349 76.3382C46.2518 76.7155 46.1544 77.0944 46.0566 77.4752L14.0787 69.8017ZM162.643 92.8324C162.593 93.5203 162.535 94.2092 162.468 94.8989L129.738 91.6282C129.778 91.2379 129.812 90.848 129.835 90.4582L162.643 92.8324ZM13.0364 74.8799C13.0943 74.5379 13.1601 74.1978 13.2178 73.8566L45.5748 79.7815C45.5339 79.9747 45.5009 80.1697 45.4678 80.3651C45.4348 80.5604 45.4018 80.7553 45.377 80.9512L12.8713 75.9058C12.9289 75.5648 12.9786 75.2219 13.0364 74.8799ZM161.94 99.0102C161.891 99.3526 161.833 99.6941 161.775 100.036C161.717 100.378 161.659 100.72 161.594 101.059L129.245 95.1358C129.278 94.9413 129.311 94.7463 129.344 94.551C129.377 94.3557 129.41 94.1606 129.443 93.9661L161.94 99.0102ZM12.1684 82.0835C12.218 81.3956 12.2761 80.7067 12.3508 80.0184L45.0735 83.2876C45.0406 83.6794 45.008 84.0695 44.9758 84.4576L12.1684 82.0835ZM160.741 105.116C160.577 105.789 160.405 106.458 160.225 107.124L128.462 98.5776C128.568 98.202 128.665 97.8228 128.755 97.4407L160.741 105.116ZM11.9811 88.3186C11.9733 87.6251 11.9741 86.9305 11.9835 86.234L44.8715 86.7999C44.8637 87.1916 44.8641 87.583 44.865 87.9722L11.9811 88.3186ZM159.036 111.105C158.823 111.767 158.596 112.423 158.36 113.076L127.412 101.933C127.54 101.566 127.669 101.196 127.791 100.824L159.036 111.105ZM12.3032 94.5503C12.2363 93.861 12.1782 93.169 12.1369 92.4764L44.9535 90.3091C44.9794 90.6988 45.0137 91.0874 45.0484 91.4744L12.3032 94.5503ZM156.837 116.95C156.571 117.59 156.288 118.225 156.007 118.855L126.086 105.18C126.246 104.826 126.406 104.471 126.559 104.111L156.837 116.95ZM13.1415 100.738C13.0232 100.057 12.9138 99.3722 12.805 98.6842L45.3316 93.7941C45.3913 94.1802 45.4516 94.5641 45.5202 94.9468L13.1415 100.738ZM154.165 122.592C153.845 123.208 153.508 123.817 153.172 124.421L124.499 108.305C124.689 107.966 124.872 107.623 125.056 107.278L154.165 122.592ZM14.4958 106.833C14.3172 106.163 14.1476 105.489 13.9868 104.813L46.0004 97.2356C46.0864 97.6154 46.1809 97.9933 46.2838 98.371L14.4958 106.833ZM151.034 127.992C150.66 128.578 150.278 129.158 149.888 129.732L122.652 111.287C122.873 110.964 123.086 110.638 123.301 110.309L151.034 127.992ZM147.458 133.11C147.039 133.663 146.613 134.209 146.18 134.748L120.565 114.109C120.816 113.806 121.052 113.498 121.288 113.188L147.458 133.11ZM16.349 112.79C16.1173 112.138 15.8944 111.482 15.6808 110.823L46.9468 100.615C47.0675 100.985 47.1969 101.355 47.3266 101.722L16.349 112.79ZM18.6909 118.568C18.4053 117.939 18.1291 117.304 17.8616 116.666L48.1746 103.907C48.3304 104.268 48.4866 104.626 48.6436 104.981L18.6909 118.568ZM143.485 137.913C143.022 138.427 142.545 138.934 142.068 139.435L118.25 116.753C118.523 116.472 118.787 116.185 119.045 115.894L143.485 137.913ZM21.4945 124.131C21.1629 123.528 20.8323 122.918 20.5109 122.304L49.6711 107.091C49.854 107.439 50.0378 107.782 50.2301 108.124L21.4945 124.131ZM139.12 142.364C138.623 142.84 138.111 143.307 137.591 143.767L115.717 119.2C116.012 118.941 116.298 118.677 116.586 118.408L139.12 142.364ZM24.7493 129.443C24.363 128.867 23.9858 128.287 23.6176 127.703L51.4313 110.145C51.6421 110.477 51.8535 110.805 52.0736 111.13L24.7493 129.443ZM134.419 146.442C133.872 146.872 133.325 147.296 132.778 147.714L112.996 121.434C113.311 121.199 113.619 120.959 113.927 120.715L134.419 146.442ZM28.4199 134.466C27.9941 133.927 27.5697 133.379 27.1545 132.826L53.4343 113.046C53.6651 113.357 53.9045 113.668 54.1529 113.974L28.4199 134.466ZM129.394 150.118C128.821 150.504 128.239 150.881 127.652 151.249L110.097 123.436C110.425 123.227 110.752 123.013 111.081 122.795L129.394 150.118ZM32.5023 139.175C32.0286 138.672 31.5565 138.16 31.1017 137.644L55.6671 115.771C55.9263 116.063 56.1862 116.351 56.4548 116.637L32.5023 139.175ZM124.082 153.37C123.475 153.706 122.869 154.036 122.256 154.355L107.04 125.192C107.388 125.011 107.735 124.826 108.076 124.635L124.082 153.37ZM36.9525 143.533C36.4389 143.069 35.9346 142.599 35.4314 142.123L58.1081 118.301C58.3959 118.571 58.6848 118.836 58.9741 119.098L36.9525 143.533ZM118.52 156.175C117.888 156.46 117.25 156.736 116.612 157.006L103.859 126.69C104.218 126.537 104.578 126.382 104.931 126.22L118.52 156.175ZM41.7586 147.513C41.2043 147.093 40.6595 146.665 40.1161 146.229L60.7519 120.618C61.0605 120.864 61.3701 121.105 61.6803 121.342L41.7586 147.513ZM112.738 158.512C112.09 158.746 111.434 158.971 110.773 159.186L100.565 127.919C100.936 127.797 101.308 127.671 101.672 127.539L112.738 158.512ZM46.8756 151.085C46.2885 150.71 45.7106 150.33 45.1344 149.94L63.5764 122.705C63.898 122.924 64.2285 123.139 64.5597 123.35L46.8756 151.085ZM106.786 160.367C106.114 160.546 105.435 160.714 104.766 160.876L97.1857 128.868C97.5679 128.778 97.9428 128.682 98.3185 128.581L106.786 160.367ZM52.2752 154.219C51.6546 153.894 51.0516 153.564 50.4419 153.223L66.5584 124.55C66.9014 124.741 67.2453 124.927 67.5898 125.109L52.2752 154.219ZM100.686 161.721C100.007 161.843 99.3205 161.956 98.6358 162.06L93.7457 129.533C94.1309 129.474 94.5167 129.412 94.8953 129.343L100.686 161.721ZM57.9191 156.893C57.273 156.621 56.6446 156.342 56.0096 156.053L69.684 126.139C70.0403 126.3 70.3972 126.458 70.7552 126.61L57.9191 156.893ZM94.4975 162.563C93.811 162.628 93.1178 162.683 92.4261 162.73L90.2628 129.909C90.6507 129.884 91.0397 129.852 91.4212 129.815L94.4975 162.563ZM63.7609 159.089C63.0973 158.871 62.4432 158.645 61.7908 158.41L72.9295 127.463C73.2991 127.595 73.6695 127.723 74.0409 127.844L63.7609 159.089ZM88.263 162.888C87.5776 162.896 86.8777 162.893 86.1872 162.882L86.7459 129.993C87.1448 130.002 87.5283 130.002 87.9209 129.998L88.263 162.888ZM69.7533 160.79C69.08 160.628 68.4083 160.458 67.738 160.278L76.2876 128.515C76.6624 128.616 77.0462 128.715 77.4228 128.806L69.7533 160.79ZM82.0322 162.696C81.3484 162.646 80.6579 162.586 79.9691 162.517L83.2361 129.789C83.6298 129.828 84.0163 129.86 84.4035 129.888L82.0322 162.696ZM74.8318 161.827C74.4912 161.769 74.1429 161.708 73.8032 161.646L79.7339 129.293C79.9279 129.329 80.1223 129.363 80.3169 129.396C80.5114 129.428 80.7062 129.46 80.9013 129.49L75.8545 161.993C75.5131 161.94 75.1722 161.885 74.8318 161.827Z" fill="url(#paint0_linear_1_584)"/>
</g>
<defs>
<linearGradient id="paint0_linear_1_584" x1="97.2451" y1="29.306" x2="30.4301" y2="114.888" gradientUnits="userSpaceOnUse">
<stop stop-color="#265E6D"/>
<stop offset="1" stop-color="#7AE7C7"/>
</linearGradient>
<clipPath id="clip0_1_584">
<rect width="151" height="151" fill="white" transform="translate(25.6144 0.511475) rotate(9.59961)"/>
</clipPath>
</defs>
</svg>
